<svg width="1024" height="1024" viewBox="0 0 1024 1024" fill="none" xmlns="http://www.w3.org/2000/svg">
<g clip-path="url(#clip0_985_27899)">
<path d="M0 0H1024V1024H0V0Z" fill="white"/>
<path d="M444.734 85.2501C445.239 85.2127 445.746 85.1861 446.252 85.1703C522.857 82.2411 600.199 113.943 656.184 165.696C712.914 218.25 746.583 291.089 749.858 368.352C752.018 420.994 740.225 473.272 715.673 519.889C707.743 535.195 695.786 554.075 684.086 566.747C691.743 562.979 702.054 559.749 709.805 565.481C718.44 571.866 726.866 579.352 735.107 586.284L783.109 626.704L829.257 665.872C852.862 685.58 878.155 700.259 877.976 734.644C877.989 751.331 871.203 767.305 859.182 778.88C846.497 791.154 829.441 797.862 811.794 797.519C780.551 797.13 768.714 779.902 749.278 759.945L688.455 696.656C678.925 686.398 668.207 676.007 658.581 665.814C640.187 646.338 628.613 640.208 639.811 611.935C593.169 652.378 523.696 674.892 462.658 677.392C384.536 679.988 308.485 651.992 250.693 599.363C193.313 546.89 159.081 473.804 155.503 396.131C149.128 227.268 276.274 91.7406 444.734 85.2501Z" fill="#0A66C2"/>
<path d="M444.259 111.713C466.872 109.907 500.941 114.683 522.64 120.358C592.312 138.578 651.607 185.143 688.016 246.911C723.881 307.799 733.879 380.511 715.78 448.82C698.137 518.331 653.495 577.932 591.75 614.41C526.946 652.504 450.511 660.27 378.291 641.527C334.326 629.005 294.255 605.535 261.829 573.313C211.056 522.881 182.329 454.391 181.935 382.829C181.553 324.231 200.748 267.182 236.475 220.733C246.925 207.086 256.297 197.465 268.26 185.333C265.385 207.803 272.858 226.119 293.286 237.465C307.629 245.431 325.104 245.139 339.651 237.65C351.816 231.44 360.988 220.617 365.119 207.598C369.163 194.758 368.044 179.787 361.787 167.817C355.168 155.258 343.897 145.788 330.385 141.434C368.662 122.271 401.748 113.856 444.259 111.713Z" fill="white"/>
<path d="M601.718 290.228C617.959 289.72 635.777 291.723 651.003 297.288C659.327 318.701 665.897 350.427 667.223 373.386C668.056 389.444 666.894 405.544 663.763 421.316C654.301 470.529 630.624 504.477 597.927 541.161C597.627 513.241 597.528 485.319 597.63 457.397C597.66 440.241 598.509 422.153 596.406 405.249C593.58 385.655 581.667 377.053 562.674 376.896C516.76 376.515 522.504 413.951 522.471 446.103L522.389 522.75C522.331 543.214 522.433 563.677 522.697 584.139C485.418 596.681 445.403 598.695 407.053 589.961C406.862 579.175 407.182 567.55 407.195 556.649L407.235 482.442L407.023 292.137C422.956 292.334 438.89 292.374 454.824 292.256C496.858 292.123 503.309 289.023 514.638 332.695C516.341 330.601 518.098 328.551 519.906 326.547C541.693 302.65 569.867 291.624 601.718 290.228Z" fill="#FFA7D7"/>
<path d="M292.011 292.214C316.137 291.56 344.504 292.13 369.014 292.099L369.036 464.723C369.159 502.624 369.054 540.524 368.721 578.423C361.627 576.072 350.923 570.139 344.373 566.479C333.654 560.137 323.486 552.905 313.978 544.861C292.779 526.742 273.075 502.781 261.122 477.497C258.396 471.731 255.375 465.939 255.161 459.599C254.871 451.035 254.983 442.301 254.981 433.724L254.994 383.495L254.986 345.714C254.988 340.915 255.134 335.899 255.036 331.123C254.587 309.277 269.973 293.456 292.011 292.214Z" fill="#FFA7D7"/>
<path d="M437.92 146.211C446.516 145.284 458.645 145.842 467.308 146.373C517.546 149.393 565.532 168.265 604.367 200.276C652.743 239.51 683.687 296.245 690.477 358.16C696.842 420.243 678.297 482.313 638.919 530.73C598.626 579.875 540.59 611.163 477.388 617.814C413.734 624.282 350.146 604.943 300.872 564.13C217.114 495.013 190.336 376.142 238.679 278.55C243.381 269.058 249.532 257.845 256.247 249.691C259.338 251.668 272.499 261.519 274.766 264.086L274.283 265.225C269.734 267.665 261.113 255.93 256.569 255.709L255.836 256.669C251.362 264.683 246.573 271.993 242.382 280.325C215.413 333.931 211.705 397.06 230.411 453.851C250.145 513.718 293.113 563.142 349.654 591.011C404.433 617.849 467.508 622.307 525.517 603.44C585.206 583.976 634.683 541.539 663.01 485.511C690.297 431.405 695.009 368.685 676.112 311.11C655.893 251.665 613.006 202.616 556.79 174.646C514.207 153.434 464.869 145.302 417.448 152.912C410.282 154.062 402.209 156.76 395.264 159.08C408.468 147.468 420.645 147.321 437.92 146.211Z" fill="#0A66C2"/>
<path d="M401.171 705.994C415.578 705.875 429.986 705.836 444.394 705.875C461.624 705.881 498.581 702.86 506.824 723.114C509.233 729.032 508.384 739.619 505.812 745.462C502.859 752.174 496.151 754.468 489.799 756.903C496.959 759.065 503.026 761.419 507.076 768.42C511.175 775.507 510.882 786.84 508.611 794.522C507.23 797.489 505.329 800.185 502.997 802.482C491.081 814.223 461.172 812.798 445.013 812.868L401.487 812.951C401.265 792.196 401.193 771.441 401.27 750.685C401.131 735.788 401.098 720.891 401.171 705.994Z" fill="#0A66C2"/>
<path d="M447.734 764.821C452.743 764.904 462.343 764.619 464.197 770.634C466.708 778.776 466.543 792.977 462.976 800.665C459.218 803.818 452.737 803.048 447.761 803.01L447.734 764.821Z" fill="white"/>
<path d="M447.922 715.157C465.209 714.805 464.859 716.699 465.156 734.422C465.236 739.147 464.923 744.841 462.003 748.675C457.524 751.438 453.097 751.191 447.891 751.472L447.922 715.157Z" fill="white"/>
<path d="M330.186 702.182C360.905 699.045 388.368 721.362 391.582 752.073C394.796 782.785 372.548 810.304 341.845 813.595C311.032 816.898 283.393 794.554 280.168 763.733C276.942 732.912 299.357 705.329 330.186 702.182Z" fill="#0A66C2"/>
<path d="M333.73 748.652C336.997 747.803 340.468 748.775 342.818 751.197C345.169 753.619 346.036 757.117 345.09 760.357C344.143 763.596 341.528 766.077 338.244 766.852C333.244 768.032 328.225 764.97 326.989 759.983C325.752 754.997 328.758 749.944 333.73 748.652Z" fill="white"/>
<path d="M539.293 828.746C554.509 828.65 569.806 828.418 585.015 828.862C594.183 829.13 608.428 831.648 613.489 840.246C620.744 852.573 619.439 874.546 606.896 883.229C610.909 889.07 614.673 896.68 618.055 903.03L631.583 928.031L583.427 927.629L582.486 927.72C577.987 924.312 566.884 894.727 560.987 895.08C559.295 897.215 560.071 923.481 560.097 928.019L515 928.092L514.984 828.904L539.293 828.746Z" fill="#0A66C2"/>
<path d="M559.97 851.784C563.48 851.796 566.48 851.442 569.707 853.176C574.451 855.724 573.431 861.023 570.991 865.146C567.428 867.952 564.273 867.534 559.898 867.528L559.97 851.784Z" fill="white"/>
<path d="M792.662 829.145C807.749 828.81 823.187 829.182 838.387 828.986C838.466 860.571 838.469 892.186 838.396 923.769C838.392 925.731 838.631 926.984 837.505 928.09C822.506 927.897 807.505 928.005 792.511 928.414L792.626 895.533L776.951 895.535L777.023 928.025C762.19 928.014 746.643 927.48 731.884 927.868L731.881 857.341C731.863 853.075 731.052 831.849 731.803 829.538L733.192 829.237L777.019 829.23L776.958 862.61C782.233 862.583 787.508 862.627 792.782 862.741C792.686 851.542 792.646 840.344 792.662 829.145Z" fill="#0A66C2"/>
<path d="M419.958 828.943L479.565 828.841C490.119 861.701 499.922 895.503 510.568 928.084C495.208 928.116 478.813 927.89 463.541 928.357L461.1 913.546C453.653 914 446.663 913.906 439.204 913.866C438.441 918.495 437.718 923.54 436.632 928.07C431.57 928.112 393.429 928.874 391.686 927.933L391.362 927.506C391.019 923.702 391.615 919.252 390.925 915.604L390.727 912.304C393.15 913.07 393.736 912.758 394.843 914.378L419.958 828.943Z" fill="#0A66C2"/>
<path d="M390.727 912.304C393.15 913.07 393.736 912.758 394.843 914.378C393.674 918.691 392.386 923.172 391.362 927.506C391.019 923.702 391.615 919.252 390.925 915.604L390.727 912.304Z" fill="white"/>
<path d="M446.984 869.506L453.28 869.435C453.508 873.226 456.004 885.364 455.447 887.661L454.127 887.948L443.695 887.941C445.234 882.146 446.153 875.474 446.984 869.506Z" fill="white"/>
<path d="M678.847 824.199C694.564 822.474 707.257 826.163 721.603 831.762C718.833 840.128 707.31 870.797 707.286 877.135C707.254 885.544 718.64 911.979 722.185 921.013C711.187 927.888 698.328 930.764 685.488 931.108C611.198 930.962 605.67 832.089 678.847 824.199Z" fill="#0A66C2"/>
<path d="M681.459 868.165C683.62 868.06 685.724 868.373 687.882 868.602C687.854 878.544 692.606 889.895 678.867 888.738C677.603 888.277 676.781 887.98 675.627 887.256C673.313 885.785 671.692 883.441 671.135 880.756C670.531 877.822 671.224 874.77 673.037 872.386C675.369 869.271 677.845 868.782 681.459 868.165Z" fill="white"/>
<path d="M302.367 828.856L387.88 828.847L387.909 853.449L347.954 853.499L347.996 865.743L386.053 865.544L386.031 890.436L347.796 890.477L347.834 903.524C362.158 903.354 376.484 903.316 390.809 903.41C390.806 906.375 390.778 909.34 390.725 912.304L390.923 915.604C390.447 918.395 390.535 925.204 390.494 928.316L302.4 928.645L302.367 828.856Z" fill="#0A66C2"/>
<path d="M558.323 703.201C569.583 701.197 588.983 703.582 597.651 711.779C604.289 718.057 606.887 728.368 600.343 735.746C598.955 737.31 596.431 738.303 594.39 738.548C582.962 739.393 586.138 731.781 586.642 724.481C587.1 717.847 578.842 716.193 573.775 716.735C562.574 717.932 559.041 727.922 567.957 735.284C582.912 747.38 607.729 753.668 610.56 775.908C611.917 786.565 607.658 795.987 599.44 802.86C590.129 810.648 579.41 813.096 567.609 814.453C552.45 815.258 537.619 813.707 524.905 804.593C515.665 797.97 518.868 786.488 524.602 778.754C526.58 776.086 533.588 774.446 535.646 777.311C539.182 782.232 534.66 790.738 539.799 795.252C545.483 800.242 566.062 801.182 564.77 789.572C564.188 782.95 555.155 777.121 549.161 774.275C525.678 763.122 507.721 742.303 525.493 717.063C531.67 708.291 547.402 704.257 558.323 703.201Z" fill="#0A66C2"/>
<path d="M242.36 827.206C256.071 824.959 283.932 828.83 286.39 845.627C287.317 854.713 277.546 860.16 269.931 860.195C257.419 860.253 263.539 852.705 264.318 845.566C264.818 840.983 258.575 840.294 255.059 840.815C242.485 842.678 241.545 854.391 251.759 860.805C265.067 869.572 285.771 876.133 288.511 893.919C289.678 901.816 287.609 909.85 282.774 916.203C275.036 926.276 262.14 929.788 250.124 931.285C238.527 933.35 218.906 930.732 208.41 923.449C195.454 914.459 199.13 898.033 215.21 896.459C226.426 895.362 217.496 918.854 234.733 915.949C245.03 914.214 248.222 905.898 240.324 898.498C227.358 888.656 206.63 882.433 204.234 863.472C202.017 839.455 221.227 829.1 242.36 827.206Z" fill="#0A66C2"/>
<path d="M225.277 706.061L271.699 706.373L271.662 753.327C271.77 780.516 274.804 807.07 241.094 813.454C239.313 813.566 237.53 813.648 235.746 813.698C225.289 813.923 214.961 811.457 207.238 803.994C196.719 793.83 196.952 779.097 196.844 765.426C204.027 768.058 214.353 771.007 220.601 764.953C226.882 758.867 225.447 745.566 225.419 737.301L225.277 706.061Z" fill="#0A66C2"/>
</g>
<defs>
<clipPath id="clip0_985_27899">
<rect width="1024" height="1024" rx="50" fill="white"/>
</clipPath>
</defs>
</svg>
